<svg width="86" height="48" viewBox="0 0 86 48" fill="none" xmlns="http://www.w3.org/2000/svg">
<path d="M20.4592 47.5115C19.9415 47.5115 19.4239 47.4468 18.9278 47.3174C17.1051 46.8536 15.6707 45.7535 14.7539 44.1358C12.8018 40.6414 13.999 35.745 14.6029 33.8145C16.0266 29.2524 18.7444 25.3698 21.1926 22.0803C22.0015 20.9911 22.7996 19.9449 23.5761 18.9311C23.2849 18.3703 22.9182 17.9497 22.4437 17.734C19.618 16.4937 13.9558 23.2667 12.1008 25.4884L11.6586 26.0169L6.70828 21.8539L7.13969 21.3362C10.5909 17.2055 17.763 8.60981 25.0537 11.8022C26.1645 12.2875 27.0705 12.9454 27.7931 13.7219C29.0333 12.2659 30.2628 10.8855 31.5031 9.55889C31.8482 9.1922 32.2473 8.73923 32.6787 8.24311C35.9897 4.47913 41.5332 -1.81933 47.5082 0.499453C49.223 1.16813 50.5819 2.64567 51.2398 4.55463C52.4154 7.9627 51.7035 11.8669 51.1211 15.0053L50.9378 16.0299C50.3878 19.1468 49.622 22.2206 48.8886 25.1864L48.7053 25.909C50.1505 24.0864 51.4339 22.0264 52.7605 19.891C55.2842 15.8358 57.8834 11.6512 61.9925 8.56667C65.8643 5.6547 68.8626 6.86264 69.9626 7.50974C72.4432 8.97651 73.6511 12.1689 73.1227 15.8358C72.7128 18.683 72.0226 21.4656 71.3647 24.1619C70.3078 28.4543 69.3155 32.5095 69.4018 36.6078C69.4234 37.5353 69.6391 38.603 70.1676 38.808C70.8147 39.056 72.4001 38.6893 73.9315 37.0824C76.7572 34.1165 78.9789 29.274 79.5937 24.7443L86 25.6178C85.1911 31.4849 82.3655 37.5893 78.6123 41.5366C75.463 44.8584 71.2245 46.1526 67.8272 44.8368C64.7966 43.672 63.0171 40.7169 62.92 36.748C62.8014 31.7869 63.9554 27.117 65.0662 22.6088C65.7241 19.9557 66.3389 17.4428 66.7055 14.9083C66.8242 14.1102 66.7379 13.5601 66.6516 13.2582C66.4683 13.3444 66.1987 13.4847 65.8643 13.7327C62.7259 16.0946 60.5473 19.5998 58.2393 23.3098C56.1038 26.7395 53.8929 30.2878 50.7437 33.2105C50.0534 33.8576 49.2553 34.4939 48.1337 34.8391C46.7963 35.2489 45.4374 35.1087 44.305 34.4184C42.9784 33.6203 42.0941 32.1967 41.7489 30.2986C41.4038 28.422 41.8244 26.7179 42.1588 25.3482L42.5902 23.6118C43.302 20.7538 44.0354 17.7987 44.5423 14.8975L44.7364 13.819C45.1786 11.4247 45.7286 8.45882 45.1031 6.6685C45.0707 6.58222 45.0384 6.52829 45.0168 6.48515C43.8089 6.19396 41.2852 8.21076 37.5104 12.5032C37.0251 13.0533 36.5829 13.5602 36.1946 13.97C34.3612 15.9221 32.5493 18.0144 30.6727 20.3439C30.91 21.7244 30.9962 23.051 31.0825 24.1619L31.1041 24.4531C31.4384 29.1014 31.5139 34.5479 29.4216 39.7678C28.3323 42.4965 26.8224 44.5672 24.9242 45.9369C23.5006 46.9615 21.9476 47.5007 20.4484 47.5007L20.4592 47.5115ZM24.8164 28.0984C23.1878 30.4388 21.624 33.0164 20.7828 35.7342C19.92 38.5168 20.1033 40.6522 20.4377 41.0297C20.5239 41.0297 20.8151 40.9542 21.1495 40.7061C22.0338 40.0698 22.7996 38.959 23.4143 37.3951C24.6007 34.44 24.8595 31.1829 24.8056 28.1092L24.8164 28.0984Z" fill="#1C4837"/>
<path d="M1.17557 33.4585C0.388258 32.6712 0 31.7005 0 30.5465C0 29.3925 0.388258 28.4111 1.17557 27.6346C1.96288 26.8472 2.93354 26.459 4.08754 26.459C5.24154 26.459 6.15827 26.8472 6.94558 27.6346C7.73289 28.4219 8.12115 29.3925 8.12115 30.5465C8.12115 31.7005 7.73289 32.682 6.94558 33.4585C6.15827 34.2458 5.20918 34.6341 4.08754 34.6341C2.96589 34.6341 1.95209 34.2458 1.17557 33.4585Z" fill="#1C4837"/>
</svg>
