<svg width="24" height="26" viewBox="0 0 24 26" fill="none" xmlns="http://www.w3.org/2000/svg">
<path d="M21.5 2.6875H18.5V1.1875C18.5 1.05489 18.4473 0.927715 18.3536 0.833947C18.2598 0.740179 18.1326 0.6875 18 0.6875C17.8674 0.6875 17.7402 0.740179 17.6464 0.833947C17.5527 0.927715 17.5 1.05489 17.5 1.1875V2.6875H10.5V1.1875C10.5 1.05489 10.4473 0.927715 10.3536 0.833947C10.2598 0.740179 10.1326 0.6875 10 0.6875C9.86739 0.6875 9.74021 0.740179 9.64645 0.833947C9.55268 0.927715 9.5 1.05489 9.5 1.1875V2.6875H6.5C5.8372 2.68829 5.20178 2.95194 4.73311 3.42061C4.26444 3.88928 4.00079 4.5247 4 5.1875V18.1875C4.00079 18.8503 4.26444 19.4857 4.73311 19.9544C5.20178 20.4231 5.8372 20.6867 6.5 20.6875H21.5C22.1629 20.687 22.7985 20.4234 23.2672 19.9547C23.7359 19.486 23.9995 18.8504 24 18.1875V5.1875C23.9995 4.52462 23.7359 3.88904 23.2672 3.42032C22.7985 2.95159 22.1629 2.68803 21.5 2.6875ZM23 18.1875C23 18.5853 22.842 18.9669 22.5607 19.2482C22.2794 19.5295 21.8978 19.6875 21.5 19.6875H6.5C6.10218 19.6875 5.72064 19.5295 5.43934 19.2482C5.15804 18.9669 5 18.5853 5 18.1875V9.6875H23V18.1875ZM23 8.6875H5V5.1875C5 4.3595 5.67 3.6875 6.5 3.6875H9.5V5.1875C9.5 5.32011 9.55268 5.44729 9.64645 5.54105C9.74021 5.63482 9.86739 5.6875 10 5.6875C10.1326 5.6875 10.2598 5.63482 10.3536 5.54105C10.4473 5.44729 10.5 5.32011 10.5 5.1875V3.6875H17.5V5.1875C17.5 5.32011 17.5527 5.44729 17.6464 5.54105C17.7402 5.63482 17.8674 5.6875 18 5.6875C18.1326 5.6875 18.2598 5.63482 18.3536 5.54105C18.4473 5.44729 18.5 5.32011 18.5 5.1875V3.6875H21.5C21.8978 3.6875 22.2794 3.84554 22.5607 4.12684C22.842 4.40814 23 4.78968 23 5.1875V8.6875Z" fill="#111441"/>
<circle cx="6" cy="19.6875" r="6" fill="#A4BE7B"/>
<path d="M2.5 19.9567V19.4183H5.73077V16.1875H6.26923V19.4183H9.5V19.9567H6.26923V23.1875H5.73077V19.9567H2.5Z" fill="#111441"/>
</svg>
