<svg width="17" height="15" viewBox="0 0 17 15" fill="none" xmlns="http://www.w3.org/2000/svg">
<path d="M17.0002 7.2746C17.0002 7.6543 16.718 7.96809 16.352 8.01775L16.2502 8.0246H1.2502C0.835987 8.0246 0.5002 7.68881 0.5002 7.2746C0.5002 6.8949 0.782354 6.58111 1.14843 6.53145L1.2502 6.5246H16.2502C16.6644 6.5246 17.0002 6.86039 17.0002 7.2746Z" fill="currentColor"/>
<path d="M7.82919 12.7675C8.12271 13.0598 8.12373 13.5347 7.83147 13.8282C7.56578 14.095 7.14917 14.1201 6.85509 13.9029L6.77081 13.8305L0.720813 7.80647C0.453177 7.53998 0.42883 7.12187 0.647784 6.8278L0.720769 6.74357L6.77077 0.718573C7.06427 0.426287 7.53914 0.42727 7.83143 0.720769C8.09714 0.987586 8.12049 1.4043 7.90202 1.69746L7.82923 1.78143L2.3132 7.2753L7.82919 12.7675Z" fill="currentColor"/>
</svg>
