<svg width="15" height="11" viewBox="0 0 15 11" fill="none" xmlns="http://www.w3.org/2000/svg">
<path d="M8.15628 0.389212C8.34052 0.20503 8.59036 0.101563 8.85088 0.101562C9.11139 0.101562 9.36124 0.20503 9.54547 0.389212L13.9665 4.81027C14.1507 4.9945 14.2542 5.24435 14.2542 5.50486C14.2542 5.76537 14.1507 6.01522 13.9665 6.19946L9.54547 10.6205C9.36018 10.7995 9.11201 10.8985 8.85441 10.8963C8.59682 10.894 8.3504 10.7907 8.16825 10.6085C7.98609 10.4264 7.88277 10.18 7.88053 9.92238C7.87829 9.66478 7.97732 9.41661 8.15628 9.23132L10.8158 6.48732H1.48246C1.22189 6.48732 0.972001 6.38381 0.787755 6.19956C0.603508 6.01532 0.5 5.76542 0.5 5.50486C0.5 5.2443 0.603508 4.99441 0.787755 4.81016C0.972001 4.62591 1.22189 4.52241 1.48246 4.52241H10.8158L8.15628 1.77841C7.9721 1.59417 7.86863 1.34432 7.86863 1.08381C7.86863 0.823297 7.9721 0.57345 8.15628 0.389212Z" fill="currentColor"/>
</svg>
