<svg width="17" height="19" viewBox="0 0 17 19" fill="none" xmlns="http://www.w3.org/2000/svg">
<path d="M14.768 2.33631C14.7325 1.81476 14.5002 1.32616 14.1182 0.969319C13.7362 0.612476 13.2329 0.414014 12.7101 0.414063H2.16846L2.02729 0.418646C1.50574 0.454427 1.01724 0.686924 0.660566 1.06912C0.303892 1.45132 0.105661 1.9547 0.105957 2.47748V16.684L0.110541 16.8251C0.146089 17.3467 0.378359 17.8353 0.760387 18.1921C1.14242 18.549 1.64569 18.7474 2.16846 18.7474H9.10579L7.73079 17.3724H2.16846L2.07496 17.366C1.91037 17.3434 1.75952 17.262 1.65033 17.1367C1.54113 17.0115 1.48096 16.851 1.48096 16.6849V2.47748L1.48737 2.38398C1.50997 2.21939 1.5914 2.06855 1.7166 1.95935C1.84181 1.85015 2.00232 1.78999 2.16846 1.78998H12.7101L12.8036 1.7964C12.9682 1.81899 13.1191 1.90042 13.2283 2.02563C13.3375 2.15083 13.3976 2.31134 13.3976 2.47748V13.0806L14.46 12.0181C14.5572 11.921 14.6617 11.8348 14.7717 11.7615V2.47656L14.768 2.33631ZM11.37 18.7465C11.3468 18.7478 11.3235 18.7478 11.3003 18.7465C11.13 18.7379 10.9689 18.6664 10.8484 18.5457L8.55671 16.2522C8.42786 16.1231 8.35557 15.9481 8.35574 15.7657C8.35591 15.5834 8.42853 15.4085 8.55762 15.2796C8.68672 15.1508 8.86171 15.0785 9.04411 15.0787C9.2265 15.0788 9.40136 15.1515 9.53021 15.2806L11.3351 17.0873L15.4326 12.9898C15.4961 12.9242 15.572 12.8718 15.6559 12.8358C15.7398 12.7999 15.83 12.7809 15.9213 12.7802C16.0125 12.7794 16.1031 12.7969 16.1875 12.8315C16.272 12.8661 16.3488 12.9172 16.4133 12.9818C16.4778 13.0463 16.5288 13.1231 16.5633 13.2076C16.5979 13.2921 16.6152 13.3827 16.6144 13.474C16.6135 13.5652 16.5945 13.6554 16.5585 13.7393C16.5224 13.8232 16.47 13.899 16.4043 13.9624L11.821 18.5457C11.7007 18.6662 11.54 18.7377 11.37 18.7465ZM9.12596 13.7057C9.07037 13.7035 9.01471 13.7035 8.95912 13.7057H6.74721C6.56487 13.7057 6.39 13.6333 6.26107 13.5044C6.13214 13.3754 6.05971 13.2006 6.05971 13.0182C6.05971 12.8359 6.13214 12.661 6.26107 12.5321C6.39 12.4032 6.56487 12.3307 6.74721 12.3307H11.3342C11.5165 12.3307 11.6914 12.4032 11.8203 12.5321C11.9493 12.661 12.0217 12.8359 12.0217 13.0182C12.0217 13.2006 11.9493 13.3754 11.8203 13.5044C11.6914 13.6333 11.5165 13.7057 11.3342 13.7057H9.12596ZM4.68929 5.68673C4.68929 5.92984 4.59271 6.163 4.42081 6.33491C4.2489 6.50682 4.01574 6.6034 3.77262 6.6034C3.52951 6.6034 3.29635 6.50682 3.12444 6.33491C2.95254 6.163 2.85596 5.92984 2.85596 5.68673C2.85596 5.44361 2.95254 5.21046 3.12444 5.03855C3.29635 4.86664 3.52951 4.77006 3.77262 4.77006C4.01574 4.77006 4.2489 4.86664 4.42081 5.03855C4.59271 5.21046 4.68929 5.44361 4.68929 5.68673ZM6.06062 5.6849C6.06062 5.50256 6.13306 5.32769 6.26199 5.19876C6.39092 5.06983 6.56579 4.9974 6.74812 4.9974H11.3351C11.5175 4.9974 11.6923 5.06983 11.8213 5.19876C11.9502 5.32769 12.0226 5.50256 12.0226 5.6849C12.0226 5.86723 11.9502 6.0421 11.8213 6.17103C11.6923 6.29996 11.5175 6.3724 11.3351 6.3724H6.74812C6.56579 6.3724 6.39092 6.29996 6.26199 6.17103C6.13306 6.0421 6.06062 5.86723 6.06062 5.6849ZM6.74812 8.66406C6.56579 8.66406 6.39092 8.7365 6.26199 8.86543C6.13306 8.99436 6.06062 9.16923 6.06062 9.35156C6.06062 9.5339 6.13306 9.70877 6.26199 9.8377C6.39092 9.96663 6.56579 10.0391 6.74812 10.0391H11.3351C11.4254 10.0391 11.5148 10.0213 11.5982 9.98673C11.6816 9.95218 11.7574 9.90154 11.8213 9.8377C11.8851 9.77386 11.9357 9.69807 11.9703 9.61466C12.0048 9.53125 12.0226 9.44185 12.0226 9.35156C12.0226 9.26128 12.0048 9.17188 11.9703 9.08847C11.9357 9.00506 11.8851 8.92927 11.8213 8.86543C11.7574 8.80159 11.6816 8.75095 11.5982 8.7164C11.5148 8.68185 11.4254 8.66406 11.3351 8.66406H6.74812ZM3.77262 10.2682C4.01574 10.2682 4.2489 10.1717 4.42081 9.99974C4.59271 9.82784 4.68929 9.59468 4.68929 9.35156C4.68929 9.10845 4.59271 8.87529 4.42081 8.70338C4.2489 8.53147 4.01574 8.4349 3.77262 8.4349C3.52951 8.4349 3.29635 8.53147 3.12444 8.70338C2.95254 8.87529 2.85596 9.10845 2.85596 9.35156C2.85596 9.59468 2.95254 9.82784 3.12444 9.99974C3.29635 10.1717 3.52951 10.2682 3.77262 10.2682ZM4.68929 13.0164C4.68929 13.2595 4.59271 13.4927 4.42081 13.6646C4.2489 13.8365 4.01574 13.9331 3.77262 13.9331C3.52951 13.9331 3.29635 13.8365 3.12444 13.6646C2.95254 13.4927 2.85596 13.2595 2.85596 13.0164C2.85596 12.7733 2.95254 12.5401 3.12444 12.3682C3.29635 12.1963 3.52951 12.0997 3.77262 12.0997C4.01574 12.0997 4.2489 12.1963 4.42081 12.3682C4.59271 12.5401 4.68929 12.7733 4.68929 13.0164Z" fill="currentColor"/>
</svg>
