<svg width="18" height="22" viewBox="0 0 18 22" fill="none" xmlns="http://www.w3.org/2000/svg">
<path d="M12.0949 19.0461C11.2691 20.2842 10.2378 20.9033 8.9997 20.9033C7.76161 20.9033 6.73027 20.2842 5.90446 19.0461M15.2954 17.189H2.70399C2.34226 17.1892 1.98698 17.0933 1.67445 16.9112C1.36192 16.729 1.10335 16.4672 0.925174 16.1524C0.746998 15.8376 0.655603 15.4811 0.660331 15.1194C0.665058 14.7577 0.765739 14.4038 0.952082 14.0938C2.16719 12.0686 2.80911 9.75122 2.80923 7.38946V6.04613C2.80923 4.73268 3.33099 3.47302 4.25974 2.54427C5.1885 1.61552 6.44815 1.09375 7.76161 1.09375H10.2378C11.5512 1.09375 12.8109 1.61552 13.7397 2.54427C14.6684 3.47302 15.1902 4.73268 15.1902 6.04613V7.38946C15.1902 9.75051 15.8315 12.0695 17.0473 14.0938C17.2337 14.4038 17.3343 14.7577 17.3391 15.1194C17.3438 15.4811 17.2524 15.8376 17.0742 16.1524C16.8961 16.4672 16.6375 16.729 16.325 16.9112C16.0124 17.0933 15.6571 17.1892 15.2954 17.189Z" stroke="currentColor" stroke-width="1.5" stroke-linecap="round" stroke-linejoin="round"/>
</svg>
