<svg width="25" height="25" viewBox="0 0 25 25" fill="none" xmlns="http://www.w3.org/2000/svg">
<g clip-path="url(#clip0_9249_3507)">
<path d="M19.7116 4.80735H16.827V3.36505C16.827 3.23754 16.7763 3.11525 16.6861 3.02509C16.596 2.93493 16.4737 2.88428 16.3462 2.88428C16.2187 2.88428 16.0964 2.93493 16.0062 3.02509C15.9161 3.11525 15.8654 3.23754 15.8654 3.36505V4.80735H9.13464V3.36505C9.13464 3.23754 9.08399 3.11525 8.99383 3.02509C8.90367 2.93493 8.78138 2.88428 8.65387 2.88428C8.52637 2.88428 8.40408 2.93493 8.31392 3.02509C8.22376 3.11525 8.1731 3.23754 8.1731 3.36505V4.80735H5.28849C4.65118 4.80812 4.0402 5.06162 3.58956 5.51227C3.13891 5.96291 2.88541 6.57389 2.88464 7.2112V19.7112C2.88541 20.3485 3.13891 20.9595 3.58956 21.4101C4.0402 21.8608 4.65118 22.1143 5.28849 22.115H19.7116C20.3489 22.1145 20.9601 21.8611 21.4108 21.4104C21.8615 20.9597 22.1149 20.3486 22.1154 19.7112V7.2112C22.1149 6.57382 21.8615 5.96269 21.4108 5.51199C20.9601 5.06129 20.3489 4.80786 19.7116 4.80735ZM21.1539 19.7112C21.1539 20.0937 21.0019 20.4606 20.7314 20.7311C20.4609 21.0016 20.0941 21.1535 19.7116 21.1535H5.28849C4.90597 21.1535 4.53911 21.0016 4.26862 20.7311C3.99814 20.4606 3.84618 20.0937 3.84618 19.7112V11.5381H21.1539V19.7112ZM21.1539 10.5766H3.84618V7.2112C3.84618 6.41505 4.49041 5.76889 5.28849 5.76889H8.1731V7.2112C8.1731 7.33871 8.22376 7.46099 8.31392 7.55116C8.40408 7.64132 8.52637 7.69197 8.65387 7.69197C8.78138 7.69197 8.90367 7.64132 8.99383 7.55116C9.08399 7.46099 9.13464 7.33871 9.13464 7.2112V5.76889H15.8654V7.2112C15.8654 7.33871 15.9161 7.46099 16.0062 7.55116C16.0964 7.64132 16.2187 7.69197 16.3462 7.69197C16.4737 7.69197 16.596 7.64132 16.6861 7.55116C16.7763 7.46099 16.827 7.33871 16.827 7.2112V5.76889H19.7116C20.0941 5.76889 20.4609 5.92085 20.7314 6.19133C21.0019 6.46182 21.1539 6.82868 21.1539 7.2112V10.5766Z" fill="white"/>
<circle cx="5.96155" cy="18.5" r="5" fill="white"/>
<path d="M2.72975 19.2216C2.60266 19.2216 2.49963 19.1185 2.49963 18.9915C2.49963 18.8644 2.60266 18.7613 2.72975 18.7613H5.36719V16.239C5.36719 16.107 5.47418 16 5.60616 16C5.73813 16 5.84512 16.107 5.84512 16.239V18.7613H8.48256C8.60965 18.7613 8.71268 18.8644 8.71268 18.9915C8.71268 19.1185 8.60965 19.2216 8.48256 19.2216H5.84512V21.7439C5.84512 21.8759 5.73813 21.9829 5.60616 21.9829C5.47418 21.9829 5.36719 21.8759 5.36719 21.7439V19.2216H2.72975Z" fill="#1C4837"/>
</g>
<defs>
<clipPath id="clip0_9249_3507">
<rect width="23.0769" height="23.0769" fill="white" transform="translate(0.961548 0.961426)"/>
</clipPath>
</defs>
</svg>
