<svg width="16" height="17" viewBox="0 0 16 17" fill="none" xmlns="http://www.w3.org/2000/svg">
<path d="M13.6439 9.85078C13.2363 11.2025 11.6272 12.6566 10.0674 13.9034C9.41056 14.4289 8.76244 14.9169 8.21629 15.3463C7.63112 14.98 6.93834 14.5642 6.23505 14.1121C4.5617 13.0418 2.82096 11.7724 2.28385 10.4716C1.26567 8.01094 2.26425 6.29487 3.62867 5.69806C4.71947 5.21973 6.60983 6.06876 7.84397 7.68887C8.91335 5.94303 10.7113 4.89414 11.8432 5.24979C13.2569 5.69357 14.4177 7.29279 13.6453 9.84953" fill="#D13135"/>
<path d="M13.5298 9.81157C13.1735 10.9491 12.2263 11.8659 11.3672 12.648C10.3437 13.5791 9.22731 14.4005 8.13943 15.2555L8.28473 15.2481C7.06129 14.4827 5.81017 13.7533 4.65573 12.8843C3.62933 12.1129 2.64187 11.2383 2.23034 9.98445C1.91596 9.02756 1.85834 7.92627 2.36293 7.01478C2.7495 6.31614 3.49205 5.68295 4.32414 5.68713C5.69495 5.69507 6.96079 6.74349 7.75111 7.76731C7.79646 7.82688 7.9021 7.82037 7.94172 7.75672C8.37289 7.06302 8.9246 6.44313 9.59594 5.97062C10.1278 5.59602 10.7921 5.26753 11.4576 5.30468C12.54 5.36582 13.4044 6.38468 13.6566 7.36658C13.8639 8.173 13.7647 9.02025 13.5298 9.81157C13.4856 9.95942 13.7121 10.039 13.7563 9.89116C14.1523 8.54674 14.1453 6.97076 13.1195 5.90755C12.7488 5.5231 12.2496 5.2047 11.7212 5.09673C11.0709 4.96395 10.386 5.2144 9.82851 5.53785C8.96934 6.03617 8.26474 6.78289 7.74332 7.62073L7.93392 7.61015C7.15698 6.60514 6.03045 5.69751 4.74172 5.48201C3.83632 5.33145 3.01647 5.75382 2.44984 6.45163C1.81143 7.23777 1.64465 8.28282 1.80319 9.25855C1.90421 9.87365 2.10653 10.501 2.44166 11.0285C2.77679 11.5561 3.25036 12.0293 3.73256 12.45C5.07676 13.6179 6.64337 14.5023 8.14642 15.4429C8.1931 15.4712 8.24925 15.4689 8.29172 15.4355C9.42331 14.5485 10.5848 13.694 11.6424 12.7165C12.4894 11.9321 13.4012 11.0152 13.755 9.8897C13.8019 9.74206 13.5754 9.66247 13.5286 9.8101L13.5298 9.81157Z" fill="#31007C"/>
<path d="M12.4811 9.73955C12.1786 10.7287 10.6319 12.2029 9.47896 13.1154C8.99271 13.4991 8.51275 13.8575 8.10895 14.1714C7.67644 13.9021 7.16496 13.599 6.64351 13.2693C5.40645 12.4878 3.84313 11.0131 3.44502 10.0617C2.69311 8.26216 3.27055 7.28152 4.27853 6.84563C5.08663 6.49597 6.92297 7.38567 7.8347 8.56792C8.62611 7.29077 10.3397 6.16007 11.1771 6.41837C12.2229 6.74391 13.0526 7.86501 12.4813 9.73684" fill="#EB5664"/>
<path d="M11.3145 7.44959C11.0519 7.21978 10.686 7.19035 10.787 7.0798C10.8892 6.97072 11.1852 7.06682 11.4479 7.29663C11.7105 7.52644 11.802 7.99893 11.7385 7.91198C11.6213 7.75252 11.5772 7.6794 11.3145 7.44959Z" fill="white"/>
<path d="M11.4932 8.38057C11.292 8.21435 11.2042 8.07771 10.734 7.8653C10.1364 7.59491 9.63965 7.65862 9.71842 7.53674C9.79843 7.41633 10.4147 7.40724 10.8487 7.67538C11.2827 7.94353 11.5494 8.42601 11.492 8.37911" fill="white"/>
</svg>
