<svg width="11" height="8" viewBox="0 0 11 8" fill="none" xmlns="http://www.w3.org/2000/svg">
<path d="M3.96935 6.46875L9.26623 1.17188C9.39123 1.04688 9.53977 0.984375 9.71185 0.984375C9.88393 0.984375 10.0323 1.04688 10.1569 1.17188C10.2819 1.29688 10.3444 1.44542 10.3444 1.6175C10.3444 1.78958 10.2819 1.93792 10.1569 2.0625L4.40685 7.8125C4.28185 7.9375 4.13602 8 3.96935 8C3.80268 8 3.65685 7.9375 3.53185 7.8125L0.844351 5.125C0.719351 5 0.659351 4.85167 0.664351 4.68C0.669351 4.50833 0.734559 4.35979 0.859976 4.23437C0.984976 4.10937 1.13352 4.04687 1.3056 4.04687C1.47768 4.04687 1.62602 4.10937 1.7506 4.23437L3.96935 6.46875Z" fill="currentColor"/>
</svg>
