<svg width="21" height="20" viewBox="0 0 21 20" fill="none" xmlns="http://www.w3.org/2000/svg">
<path fill-rule="evenodd" clip-rule="evenodd" d="M11 18.7C15.8049 18.7 19.7 14.8049 19.7 10C19.7 5.19512 15.8049 1.3 11 1.3C6.19512 1.3 2.3 5.19512 2.3 10C2.3 14.8049 6.19512 18.7 11 18.7ZM11 20C16.5228 20 21 15.5228 21 10C21 4.47715 16.5228 0 11 0C5.47715 0 1 4.47715 1 10C1 15.5228 5.47715 20 11 20Z" fill="currentColor"/>
<path fill-rule="evenodd" clip-rule="evenodd" d="M11 13.7C13.0435 13.7 14.7 12.0435 14.7 10C14.7 7.95655 13.0435 6.3 11 6.3C8.95655 6.3 7.3 7.95655 7.3 10C7.3 12.0435 8.95655 13.7 11 13.7ZM11 15C13.7614 15 16 12.7614 16 10C16 7.23858 13.7614 5 11 5C8.23858 5 6 7.23858 6 10C6 12.7614 8.23858 15 11 15Z" fill="currentColor"/>
<path d="M19 17C19 18.1046 18.1046 19 17 19C15.8954 19 15 18.1046 15 17C15 15.8954 15.8954 15 17 15C18.1046 15 19 15.8954 19 17Z" fill="currentColor"/>
<path d="M4 12C4 13.1046 3.10457 14 2 14C0.89543 14 0 13.1046 0 12C0 10.8954 0.89543 10 2 10C3.10457 10 4 10.8954 4 12Z" fill="currentColor"/>
<path d="M11 6C11 7.10457 10.1046 8 9 8C7.89543 8 7 7.10457 7 6C7 4.89543 7.89543 4 9 4C10.1046 4 11 4.89543 11 6Z" fill="currentColor"/>
</svg>
