<svg width="13" height="12" viewBox="0 0 13 12" fill="none" xmlns="http://www.w3.org/2000/svg">
<path d="M6.31641 0.109375C5.15753 0.109375 4.02468 0.453058 3.06111 1.09696C2.09755 1.74087 1.34653 2.65607 0.903052 3.72685C0.45957 4.79762 0.343535 5.97587 0.56962 7.1126C0.795705 8.24933 1.35376 9.29348 2.17321 10.113C2.99265 10.9326 4.03669 11.4907 5.1733 11.7168C6.30991 11.9429 7.48803 11.8268 8.55869 11.3833C9.62936 10.9398 10.5445 10.1887 11.1883 9.22501C11.8321 8.26134 12.1758 7.12837 12.1758 5.96937C12.1741 4.41573 11.5562 2.92621 10.4577 1.82761C9.35925 0.72902 7.86989 0.111081 6.31641 0.109375ZM6.31641 11.3606C5.25024 11.3606 4.20802 11.0444 3.32154 10.452C2.43505 9.8596 1.74412 9.01761 1.33612 8.0325C0.928117 7.04738 0.821365 5.96339 1.02936 4.9176C1.23736 3.87181 1.75077 2.91119 2.50466 2.15722C3.25855 1.40325 4.21907 0.889786 5.26475 0.681765C6.31043 0.473745 7.3943 0.580508 8.37931 0.988555C9.36432 1.3966 10.2062 2.08761 10.7985 2.97418C11.3909 3.86076 11.707 4.9031 11.707 5.96937C11.7055 7.39873 11.137 8.7691 10.1264 9.77981C9.11584 10.7905 7.74562 11.359 6.31641 11.3606ZM9.83203 5.96937C9.83203 6.03154 9.80734 6.09116 9.76339 6.13512C9.71943 6.17908 9.65982 6.20377 9.59766 6.20377H6.31641C6.25425 6.20377 6.19463 6.17908 6.15068 6.13512C6.10673 6.09116 6.08203 6.03154 6.08203 5.96937V2.68777C6.08203 2.62561 6.10673 2.56599 6.15068 2.52203C6.19463 2.47807 6.25425 2.45337 6.31641 2.45337C6.37857 2.45337 6.43818 2.47807 6.48214 2.52203C6.52609 2.56599 6.55078 2.62561 6.55078 2.68777V5.73497H9.59766C9.65982 5.73497 9.71943 5.75967 9.76339 5.80363C9.80734 5.84759 9.83203 5.90721 9.83203 5.96937Z" fill="currentColor"/>
</svg>
