<svg width="9" height="9" viewBox="0 0 9 9" fill="none" xmlns="http://www.w3.org/2000/svg">
<path d="M1.3329 8.2546C0.935846 8.2546 0.609375 7.9193 0.609375 7.51342C0.609375 7.3193 0.688787 7.14283 0.82114 7.00165L3.40643 4.41636L0.82114 1.83107C0.688787 1.68989 0.609375 1.51342 0.609375 1.3193C0.609375 0.913419 0.935846 0.595772 1.3329 0.595772C1.54467 0.595772 1.71232 0.666361 1.84467 0.807537L4.43879 3.39283L7.05938 0.798713C7.20938 0.648713 7.3682 0.578125 7.56232 0.578125C7.95938 0.578125 8.28585 0.904596 8.28585 1.30165C8.28585 1.5046 8.22408 1.66342 8.07408 1.82224L5.47996 4.41636L8.06526 6.99283C8.20643 7.14283 8.27702 7.31048 8.27702 7.51342C8.27702 7.9193 7.95055 8.2546 7.54467 8.2546C7.34173 8.2546 7.16526 8.16636 7.02408 8.03401L4.43879 5.44871L1.87114 8.03401C1.72996 8.17518 1.54467 8.2546 1.3329 8.2546Z" fill="currentColor"/>
</svg>
