<svg width="19" height="19" viewBox="0 0 19 19" fill="none" xmlns="http://www.w3.org/2000/svg">
<path d="M18.7336 17.7028C18.805 17.7693 18.8622 17.8495 18.9019 17.9387C18.9417 18.0278 18.963 18.124 18.9647 18.2216C18.9665 18.3191 18.9485 18.416 18.912 18.5065C18.8754 18.597 18.821 18.6791 18.752 18.7481C18.683 18.8171 18.6009 18.8715 18.5104 18.9081C18.4199 18.9446 18.323 18.9625 18.2255 18.9608C18.1279 18.9591 18.0317 18.9378 17.9426 18.898C17.8534 18.8583 17.7732 18.8011 17.7067 18.7297L9.50141 10.5256L1.2961 18.7297C1.15836 18.858 0.976193 18.9279 0.787964 18.9246C0.599735 18.9213 0.420143 18.845 0.287024 18.7119C0.153905 18.5788 0.077653 18.3992 0.0743319 18.2109C0.0710109 18.0227 0.14088 17.8405 0.26922 17.7028L8.47332 9.4975L0.26922 1.29219C0.14088 1.15446 0.0710109 0.972287 0.0743319 0.784058C0.077653 0.595828 0.153905 0.416237 0.287024 0.283118C0.420143 0.149999 0.599735 0.0737468 0.787964 0.0704257C0.976193 0.0671046 1.15836 0.136974 1.2961 0.265314L9.50141 8.46942L17.7067 0.265314C17.8445 0.136974 18.0266 0.0671046 18.2149 0.0704257C18.4031 0.0737468 18.5827 0.149999 18.7158 0.283118C18.8489 0.416237 18.9252 0.595828 18.9285 0.784058C18.9318 0.972287 18.8619 1.15446 18.7336 1.29219L10.5295 9.4975L18.7336 17.7028Z" fill="currentColor"/>
</svg>
