<svg width="19" height="17" viewBox="0 0 19 17" fill="none" xmlns="http://www.w3.org/2000/svg">
<path fill-rule="evenodd" clip-rule="evenodd" d="M13.3052 0.947494C13.7569 0.495887 14.3695 0.242188 15.0083 0.242188C15.6471 0.242188 16.2597 0.495887 16.7114 0.947494L16.8783 1.11436C17.3299 1.5661 17.5836 2.17877 17.5836 2.81753C17.5836 3.4563 17.3299 4.06891 16.8783 4.52066L5.64141 15.7576C5.58127 15.8177 5.50593 15.8604 5.42343 15.881L1.54396 16.8509C1.38406 16.8908 1.21492 16.844 1.09838 16.7274C0.981833 16.6109 0.934983 16.4418 0.974957 16.2819L1.94482 12.4024C1.96545 12.3199 2.00811 12.2445 2.06824 12.1844L11.7667 2.48599C11.7667 2.48591 11.7668 2.48583 11.7669 2.48575C11.767 2.48567 11.7671 2.48559 11.7671 2.48551L13.3052 0.947494ZM12.0987 3.4811L2.82371 12.7561L2.07503 15.7508L5.06974 15.0021L14.3447 5.72713L12.0987 3.4811ZM15.0083 5.06357L12.7623 2.81754L13.9686 1.61116C13.9686 1.61118 13.9686 1.61114 13.9686 1.61116C14.2444 1.33551 14.6184 1.18061 15.0083 1.18061C15.3982 1.18061 15.7722 1.33548 16.0479 1.61116L16.2147 1.77788C16.2146 1.77786 16.2147 1.77789 16.2147 1.77788C16.4903 2.05363 16.6452 2.42763 16.6452 2.81753C16.6452 3.20744 16.4904 3.58138 16.2147 3.85714C16.2147 3.85713 16.2147 3.85716 16.2147 3.85714L15.0083 5.06357ZM9.68974 16.3957C9.68974 16.1365 9.89982 15.9265 10.159 15.9265H17.9179C18.177 15.9265 18.3871 16.1365 18.3871 16.3957C18.3871 16.6548 18.177 16.8649 17.9179 16.8649H10.159C9.89982 16.8649 9.68974 16.6548 9.68974 16.3957Z" fill="currentColor"/>
</svg>
