<svg width="23" height="16" viewBox="0 0 23 16" fill="none" xmlns="http://www.w3.org/2000/svg">
<path fill-rule="evenodd" clip-rule="evenodd" d="M3.01923 1.01562C2.11061 1.01562 1.5 1.64005 1.5 2.26562V12.7656C1.5 13.3912 2.11061 14.0156 3.01923 14.0156H19.9808C20.8894 14.0156 21.5 13.3912 21.5 12.7656V2.26562C21.5 1.64005 20.8894 1.01562 19.9808 1.01562H3.01923ZM0.5 2.26562C0.5 0.958208 1.69747 0.015625 3.01923 0.015625H19.9808C21.3025 0.015625 22.5 0.958208 22.5 2.26562V12.7656C22.5 14.073 21.3025 15.0156 19.9808 15.0156H3.01923C1.69747 15.0156 0.5 14.073 0.5 12.7656V2.26562Z" fill="currentColor"/>
<path fill-rule="evenodd" clip-rule="evenodd" d="M3.59317 3.22504C3.75368 3.00034 4.06595 2.94829 4.29066 3.1088L11 7.90121L17.7094 3.1088C17.9341 2.94829 18.2464 3.00034 18.4069 3.22504C18.5674 3.44975 18.5154 3.76203 18.2907 3.92253L11.2907 8.92253C11.1168 9.04671 10.8833 9.04671 10.7094 8.92253L3.70942 3.92253C3.48471 3.76203 3.43267 3.44975 3.59317 3.22504Z" fill="currentColor"/>
</svg>
