<svg width="18" height="17" viewBox="0 0 18 17" fill="none" xmlns="http://www.w3.org/2000/svg">
<path fill-rule="evenodd" clip-rule="evenodd" d="M4.80766 1.6875C4.66243 1.6875 4.52314 1.7452 4.42044 1.84789C4.31774 1.95059 4.26005 2.08988 4.26005 2.23512V4.33036C4.26005 4.47559 4.31774 4.61488 4.42044 4.71758C4.52314 4.82028 4.66243 4.87798 4.80766 4.87798C4.9529 4.87798 5.09219 4.82028 5.19489 4.71758C5.29759 4.61488 5.35528 4.47559 5.35528 4.33036V2.23512C5.35528 2.08988 5.29759 1.95059 5.19489 1.84789C5.09219 1.7452 4.9529 1.6875 4.80766 1.6875ZM6.35528 2.78274V2.23512C6.35528 1.82466 6.19223 1.43102 5.902 1.14079C5.61176 0.850553 5.21812 0.6875 4.80766 0.6875C4.39721 0.6875 4.00357 0.850553 3.71333 1.14079C3.4231 1.43102 3.26004 1.82466 3.26004 2.23512V2.78274H0.617188C0.341045 2.78274 0.117188 3.0066 0.117188 3.28274C0.117188 3.55888 0.341045 3.78274 0.617188 3.78274H3.26004V4.33036C3.26004 4.74081 3.4231 5.13445 3.71333 5.42469C4.00357 5.71492 4.39721 5.87798 4.80766 5.87798C5.21812 5.87798 5.61176 5.71492 5.902 5.42469C6.19223 5.13445 6.35528 4.74081 6.35528 4.33036V3.78274H17.3791C17.6552 3.78274 17.8791 3.55888 17.8791 3.28274C17.8791 3.0066 17.6552 2.78274 17.3791 2.78274H6.35528ZM13.1886 6.9256C13.0434 6.9256 12.9041 6.98329 12.8014 7.08599C12.6987 7.18869 12.641 7.32798 12.641 7.47321V9.56845C12.641 9.71369 12.6987 9.85298 12.8014 9.95568C12.9041 10.0584 13.0434 10.1161 13.1886 10.1161C13.3339 10.1161 13.4731 10.0584 13.5758 9.95568C13.6785 9.85298 13.7362 9.71369 13.7362 9.56845V7.47321C13.7362 7.32798 13.6785 7.18869 13.5758 7.08599C13.4731 6.98329 13.3339 6.9256 13.1886 6.9256ZM14.7362 8.02083V7.47321C14.7362 7.06276 14.5732 6.66912 14.2829 6.37888C13.9927 6.08865 13.5991 5.9256 13.1886 5.9256C12.7782 5.9256 12.3845 6.08865 12.0943 6.37888C11.8041 6.66912 11.641 7.06276 11.641 7.47321V8.02083H0.617188C0.341045 8.02083 0.117188 8.24469 0.117188 8.52083C0.117188 8.79698 0.341045 9.02083 0.617188 9.02083H11.641V9.56845C11.641 9.97891 11.8041 10.3726 12.0943 10.6628C12.3845 10.953 12.7782 11.1161 13.1886 11.1161C13.5991 11.1161 13.9927 10.953 14.2829 10.6628C14.5732 10.3726 14.7362 9.97891 14.7362 9.56845V9.02083H17.3791C17.6552 9.02083 17.8791 8.79698 17.8791 8.52083C17.8791 8.24469 17.6552 8.02083 17.3791 8.02083H14.7362ZM4.80766 12.1637C4.66243 12.1637 4.52314 12.2214 4.42044 12.3241C4.31774 12.4268 4.26005 12.5661 4.26005 12.7113V14.8065C4.26005 14.9518 4.31774 15.0911 4.42044 15.1938C4.52314 15.2965 4.66243 15.3542 4.80766 15.3542C4.9529 15.3542 5.09219 15.2965 5.19489 15.1938C5.29759 15.0911 5.35528 14.9518 5.35528 14.8065V12.7113C5.35528 12.5661 5.29759 12.4268 5.19489 12.3241C5.09219 12.2214 4.9529 12.1637 4.80766 12.1637ZM6.35528 13.2589V12.7113C6.35528 12.3009 6.19223 11.9072 5.902 11.617C5.61176 11.3267 5.21812 11.1637 4.80766 11.1637C4.39721 11.1637 4.00357 11.3267 3.71333 11.617C3.4231 11.9072 3.26004 12.3009 3.26004 12.7113V13.2589H0.617188C0.341045 13.2589 0.117188 13.4828 0.117188 13.7589C0.117188 14.0351 0.341045 14.2589 0.617188 14.2589H3.26004V14.8065C3.26004 15.217 3.4231 15.6106 3.71333 15.9009C4.00357 16.1911 4.39721 16.3542 4.80766 16.3542C5.21812 16.3542 5.61176 16.1911 5.902 15.9009C6.19223 15.6106 6.35528 15.217 6.35528 14.8065V14.2589H17.3791C17.6552 14.2589 17.8791 14.0351 17.8791 13.7589C17.8791 13.4828 17.6552 13.2589 17.3791 13.2589H6.35528Z" fill="currentColor"/>
</svg>
