<svg width="15" height="11" viewBox="0 0 15 11" fill="none" xmlns="http://www.w3.org/2000/svg">
<path d="M0.939375 2.36078C0.963167 1.81782 1.19561 1.305 1.58824 0.929222C1.98087 0.553444 2.5034 0.343712 3.04688 0.34375H11.9531C12.4966 0.343712 13.0191 0.553444 13.4118 0.929222C13.8044 1.305 14.0368 1.81782 14.0606 2.36078L13.3688 2.74516L7.5 5.905L1.63125 2.74516L0.939375 2.36078ZM0.9375 3.43188V8.54688C0.9375 9.10632 1.15974 9.64284 1.55532 10.0384C1.95091 10.434 2.48743 10.6562 3.04688 10.6562H11.9531C12.5126 10.6562 13.0491 10.434 13.4447 10.0384C13.8403 9.64284 14.0625 9.10632 14.0625 8.54688V3.43188L13.8159 3.56922L7.72219 6.85047C7.6539 6.88723 7.57756 6.90647 7.5 6.90647C7.42244 6.90647 7.3461 6.88723 7.27781 6.85047L1.17844 3.56594L0.9375 3.43188Z" fill="#1C4837"/>
</svg>
