<svg width="21" height="18" viewBox="0 0 21 18" fill="none" xmlns="http://www.w3.org/2000/svg">
<path d="M1.3125 2.65403C2.47406 2.14578 4.13962 1.59771 5.75925 1.42738C7.50487 1.24331 8.98538 1.51391 9.84375 2.46034V15.8477C8.61656 15.1197 7.06125 15.0194 5.62669 15.1705C4.07794 15.3354 2.51606 15.8038 1.3125 16.2845V2.65403ZM11.1562 2.46034C12.0146 1.51391 13.4951 1.24331 15.2408 1.42738C16.8604 1.59771 18.5259 2.14578 19.6875 2.65403V16.2845C18.4826 15.8038 16.9221 15.334 15.3733 15.1719C13.9374 15.0194 12.3834 15.1183 11.1562 15.8477V2.46034ZM10.5 1.21858C9.20719 0.0551221 7.33294 -0.117955 5.62669 0.0606166C3.63956 0.270782 1.63406 0.983694 0.384562 1.57847C0.269914 1.63305 0.172693 1.72099 0.104503 1.83182C0.0363125 1.94264 3.4875e-05 2.07166 0 2.20348L0 17.3134C3.04001e-05 17.4283 0.0276113 17.5414 0.0802162 17.6422C0.132821 17.7431 0.208769 17.8285 0.301102 17.8907C0.393435 17.9529 0.499202 17.9899 0.608716 17.9982C0.718229 18.0065 0.827987 17.986 0.927938 17.9384C2.08556 17.3889 3.95063 16.7282 5.75794 16.5373C7.60725 16.3422 9.15731 16.6568 9.98812 17.7419C10.0496 17.8222 10.1275 17.8869 10.2161 17.9314C10.3047 17.9759 10.4017 17.999 10.5 17.999C10.5983 17.999 10.6953 17.9759 10.7839 17.9314C10.8725 17.8869 10.9504 17.8222 11.0119 17.7419C11.8427 16.6568 13.3928 16.3422 15.2408 16.5373C17.0494 16.7282 18.9158 17.3889 20.0721 17.9384C20.172 17.986 20.2818 18.0065 20.3913 17.9982C20.5008 17.9899 20.6066 17.9529 20.6989 17.8907C20.7912 17.8285 20.8672 17.7431 20.9198 17.6422C20.9724 17.5414 21 17.4283 21 17.3134V2.20348C21 2.07166 20.9637 1.94264 20.8955 1.83182C20.8273 1.72099 20.7301 1.63305 20.6154 1.57847C19.3659 0.983694 17.3604 0.270782 15.3733 0.0606166C13.6671 -0.119329 11.7928 0.0551221 10.5 1.21858Z" fill="currentColor"/>
</svg>
