<svg width="19" height="19" viewBox="0 0 19 19" fill="none" xmlns="http://www.w3.org/2000/svg">
<path d="M18.7321 17.7048C18.8035 17.7713 18.8608 17.8515 18.9005 17.9406C18.9402 18.0297 18.9615 18.126 18.9633 18.2235C18.965 18.3211 18.947 18.418 18.9105 18.5084C18.874 18.5989 18.8196 18.6811 18.7506 18.7501C18.6816 18.8191 18.5994 18.8735 18.5089 18.91C18.4185 18.9466 18.3216 18.9645 18.224 18.9628C18.1264 18.9611 18.0302 18.9397 17.9411 18.9C17.852 18.8603 17.7718 18.803 17.7053 18.7316L9.49994 10.5275L1.29463 18.7316C1.1569 18.86 0.974728 18.9299 0.786499 18.9265C0.59827 18.9232 0.418678 18.847 0.285559 18.7138C0.15244 18.5807 0.0761882 18.4011 0.0728671 18.2129C0.069546 18.0247 0.139415 17.8425 0.267755 17.7048L8.47186 9.49945L0.267755 1.29414C0.139415 1.15641 0.069546 0.97424 0.0728671 0.786011C0.0761882 0.597782 0.15244 0.41819 0.285559 0.285071C0.418678 0.151952 0.59827 0.0756999 0.786499 0.0723788C0.974728 0.0690577 1.1569 0.138927 1.29463 0.267267L9.49994 8.47137L17.7053 0.267267C17.843 0.138927 18.0252 0.0690577 18.2134 0.0723788C18.4016 0.0756999 18.5812 0.151952 18.7143 0.285071C18.8474 0.41819 18.9237 0.597782 18.927 0.786011C18.9303 0.97424 18.8605 1.15641 18.7321 1.29414L10.528 9.49945L18.7321 17.7048Z" fill="black"/>
</svg>
