<svg width="15" height="22" viewBox="0 0 15 22" fill="none" xmlns="http://www.w3.org/2000/svg">
<path fill-rule="evenodd" clip-rule="evenodd" d="M2.5 1.09375C1.67157 1.09375 1 1.76532 1 2.59375V18.5938C1 19.4222 1.67157 20.0938 2.5 20.0938H12.5C13.3284 20.0938 14 19.4222 14 18.5938V2.59375C14 1.76532 13.3284 1.09375 12.5 1.09375H2.5ZM0 2.59375C0 1.21304 1.11929 0.09375 2.5 0.09375H12.5C13.8807 0.09375 15 1.21304 15 2.59375V18.5938C15 19.9745 13.8807 21.0938 12.5 21.0938H2.5C1.11929 21.0938 0 19.9745 0 18.5938V2.59375Z" fill="currentColor"/>
<path fill-rule="evenodd" clip-rule="evenodd" d="M6.5 16.5938C6.5 16.0415 6.94772 15.5938 7.5 15.5938H7.51C8.06229 15.5938 8.51 16.0415 8.51 16.5938C8.51 17.146 8.06229 17.5938 7.51 17.5938H7.5C6.94772 17.5938 6.5 17.146 6.5 16.5938Z" fill="currentColor"/>
</svg>
