<svg width="12" height="14" viewBox="0 0 12 14" fill="none" xmlns="http://www.w3.org/2000/svg">
<path d="M11.7796 10.9665L9.04134 8.06198C8.91191 7.92473 8.74182 7.85153 8.56699 7.85784C8.39216 7.86414 8.22628 7.94946 8.10435 8.09577L6.49241 10.0298C6.10441 9.94335 5.32438 9.65965 4.52144 8.72525C3.7185 7.78771 3.47533 6.87532 3.40325 6.4258L5.05965 4.54443C5.18522 4.40229 5.25846 4.20873 5.26386 4.00471C5.26927 3.80068 5.20642 3.60221 5.08862 3.45129L2.59964 0.257523C2.48179 0.106131 2.31799 0.0142999 2.14304 0.00153385C1.96808 -0.0112322 1.79575 0.056072 1.66265 0.189152L0.200925 1.65165C0.0844657 1.78801 0.0149551 1.9695 0.00557879 2.16168C-0.00452532 2.35815 -0.197177 7.01206 2.89603 10.6223C5.59449 13.7697 8.97465 14 9.90558 14C10.0416 14 10.1252 13.9953 10.1474 13.9937C10.3121 13.983 10.4676 13.9015 10.5839 13.765L11.8368 12.0589C11.9513 11.9041 12.0094 11.7032 11.9987 11.4991C11.988 11.295 11.9094 11.1039 11.7796 10.9665Z" fill="#1C4837"/>
</svg>
