<svg width="29" height="29" viewBox="0 0 29 29" fill="none" xmlns="http://www.w3.org/2000/svg">
<path d="M25.2404 10.8173H18.0288V3.60577C18.0288 2.64946 17.649 1.73232 16.9727 1.05611C16.2965 0.379892 15.3794 0 14.4231 0C13.4668 0 12.5496 0.379892 11.8734 1.05611C11.1972 1.73232 10.8173 2.64946 10.8173 3.60577L10.9453 10.8173H3.60577C2.64946 10.8173 1.73232 11.1972 1.05611 11.8734C0.379892 12.5496 0 13.4668 0 14.4231C0 15.3794 0.379892 16.2965 1.05611 16.9727C1.73232 17.649 2.64946 18.0288 3.60577 18.0288L10.9453 17.9008L10.8173 25.2404C10.8173 26.1967 11.1972 27.1138 11.8734 27.79C12.5496 28.4663 13.4668 28.8462 14.4231 28.8462C15.3794 28.8462 16.2965 28.4663 16.9727 27.79C17.649 27.1138 18.0288 26.1967 18.0288 25.2404V17.9008L25.2404 18.0288C26.1967 18.0288 27.1138 17.649 27.79 16.9727C28.4663 16.2965 28.8462 15.3794 28.8462 14.4231C28.8462 13.4668 28.4663 12.5496 27.79 11.8734C27.1138 11.1972 26.1967 10.8173 25.2404 10.8173Z" fill="currentColor"/>
</svg>
