<svg width="18" height="18" viewBox="0 0 18 18" fill="none" xmlns="http://www.w3.org/2000/svg">
<path d="M15.07 5.51013L6.51002 1.23013C0.76002 -1.64987 -1.59998 0.710135 1.28002 6.46013L2.15002 8.20013C2.40002 8.71013 2.40002 9.30013 2.15002 9.81013L1.28002 11.5401C-1.59998 17.2901 0.75002 19.6501 6.51002 16.7701L15.07 12.4901C18.91 10.5701 18.91 7.43013 15.07 5.51013ZM11.84 9.75013H6.44002C6.03002 9.75013 5.69002 9.41013 5.69002 9.00013C5.69002 8.59013 6.03002 8.25013 6.44002 8.25013H11.84C12.25 8.25013 12.59 8.59013 12.59 9.00013C12.59 9.41013 12.25 9.75013 11.84 9.75013Z" fill="#3369FF"/>
</svg>
