<svg width="16" height="16" viewBox="0 0 16 16" fill="none" xmlns="http://www.w3.org/2000/svg">
<path fill-rule="evenodd" clip-rule="evenodd" d="M13.24 1.34844C12.4089 1.34844 11.7352 2.0222 11.7352 2.85333C11.7352 3.68446 12.4089 4.35822 13.24 4.35822C14.0712 4.35822 14.7449 3.68446 14.7449 2.85333C14.7449 2.0222 14.0712 1.34844 13.24 1.34844ZM11.0352 2.85333C11.0352 1.6356 12.0223 0.648438 13.24 0.648438C14.4578 0.648438 15.4449 1.6356 15.4449 2.85333C15.4449 4.07106 14.4578 5.05822 13.24 5.05822C12.0223 5.05822 11.0352 4.07106 11.0352 2.85333Z" fill="currentColor"/>
<path fill-rule="evenodd" clip-rule="evenodd" d="M2.85333 7.28594C2.0222 7.28594 1.34844 7.9597 1.34844 8.79083C1.34844 9.62196 2.0222 10.2957 2.85333 10.2957C3.68446 10.2957 4.35822 9.62196 4.35822 8.79083C4.35822 7.9597 3.68446 7.28594 2.85333 7.28594ZM0.648438 8.79083C0.648438 7.5731 1.6356 6.58594 2.85333 6.58594C4.07106 6.58594 5.05822 7.5731 5.05822 8.79083C5.05822 10.0086 4.07106 10.9957 2.85333 10.9957C1.6356 10.9957 0.648438 10.0086 0.648438 8.79083Z" fill="currentColor"/>
<path fill-rule="evenodd" clip-rule="evenodd" d="M13.24 11.7391C12.4089 11.7391 11.7352 12.4128 11.7352 13.244C11.7352 14.0751 12.4089 14.7488 13.24 14.7488C14.0712 14.7488 14.7449 14.0751 14.7449 13.244C14.7449 12.4128 14.0712 11.7391 13.24 11.7391ZM11.0352 13.244C11.0352 12.0262 12.0223 11.0391 13.24 11.0391C14.4578 11.0391 15.4449 12.0262 15.4449 13.244C15.4449 14.4617 14.4578 15.4488 13.24 15.4488C12.0223 15.4488 11.0352 14.4617 11.0352 13.244Z" fill="currentColor"/>
<path fill-rule="evenodd" clip-rule="evenodd" d="M11.693 3.79728C11.7869 3.96625 11.726 4.17933 11.557 4.27321L4.87944 7.98299C4.71046 8.07686 4.49738 8.01598 4.40351 7.84701C4.30963 7.67803 4.37051 7.46495 4.53949 7.37108L11.2171 3.6613C11.3861 3.56742 11.5991 3.6283 11.693 3.79728ZM4.38963 9.38977C4.46813 9.21314 4.67497 9.13358 4.85161 9.21209L11.5292 12.1799C11.7059 12.2584 11.7854 12.4653 11.7069 12.6419C11.6284 12.8185 11.4216 12.8981 11.2449 12.8196L4.56731 9.85176C4.39067 9.77325 4.31112 9.56641 4.38963 9.38977Z" fill="currentColor"/>
</svg>
