<svg width="22" height="22" viewBox="0 0 22 22" fill="none" xmlns="http://www.w3.org/2000/svg">
<path fill-rule="evenodd" clip-rule="evenodd" d="M6 14C4.80653 14 3.66193 14.4741 2.81802 15.318C1.97411 16.1619 1.5 17.3065 1.5 18.5C1.5 19.0304 1.71071 19.5391 2.08579 19.9142C2.46086 20.2893 2.96957 20.5 3.5 20.5H18.5C19.0304 20.5 19.5391 20.2893 19.9142 19.9142C20.2893 19.5391 20.5 19.0304 20.5 18.5C20.5 17.3065 20.0259 16.1619 19.182 15.318C18.3381 14.4741 17.1935 14 16 14H6ZM2.11091 14.6109C3.14236 13.5795 4.54131 13 6 13H16C17.4587 13 18.8576 13.5795 19.8891 14.6109C20.9205 15.6424 21.5 17.0413 21.5 18.5C21.5 19.2957 21.1839 20.0587 20.6213 20.6213C20.0587 21.1839 19.2957 21.5 18.5 21.5H3.5C2.70435 21.5 1.94129 21.1839 1.37868 20.6213C0.81607 20.0587 0.5 19.2956 0.5 18.5C0.5 17.0413 1.07946 15.6424 2.11091 14.6109Z" fill="currentColor"/>
<path fill-rule="evenodd" clip-rule="evenodd" d="M11 1.5C9.20507 1.5 7.75 2.95507 7.75 4.75C7.75 6.54493 9.20507 8 11 8C12.7949 8 14.25 6.54493 14.25 4.75C14.25 2.95507 12.7949 1.5 11 1.5ZM6.75 4.75C6.75 2.40279 8.65279 0.5 11 0.5C13.3472 0.5 15.25 2.40279 15.25 4.75C15.25 7.09721 13.3472 9 11 9C8.65279 9 6.75 7.09721 6.75 4.75Z" fill="currentColor"/>
</svg>
